<mxfile host="app.diagrams.net" modified="2023-04-25T18:47:45.906Z" agent="Mozilla/5.0 (Macintosh; Intel Mac OS X 10_15_7) AppleWebKit/537.36 (KHTML, like Gecko) Chrome/112.0.0.0 Safari/537.36" version="21.2.2" etag="Np22BdJaZZUh3EvaM1Sg" type="github">
  <diagram name="Page-1" id="NW9ZzpJQOsfiYCGyNYg1">
    <mxGraphModel>
      <root>
        <mxCell id="0" />
        <mxCell id="1" parent="0" />
      </root>
    </mxGraphModel>
  </diagram>
</mxfile>
